<?xml version="1.0" encoding="UTF-8"?>
<svg version="1.1" xmlns="http://www.w3.org/2000/svg" width="960" height="960">
<path d="M0 0 C1.09717924 -0.00175304 2.19435849 -0.00350607 3.32478559 -0.00531223 C7.00304686 -0.00996592 10.68126849 -0.00750834 14.3595314 -0.00507832 C17.02265625 -0.0069466 19.68577816 -0.00920755 22.34890199 -0.01194364 C28.1400932 -0.01708985 33.93127606 -0.01851619 39.72246933 -0.01748753 C48.33442233 -0.01596156 56.9463661 -0.02012664 65.5583173 -0.02536215 C81.83490057 -0.03503087 98.11148069 -0.03784621 114.3880665 -0.03841921 C126.95782221 -0.03887882 139.52757669 -0.04093752 152.097332 -0.04411983 C155.71603211 -0.04501738 159.33473221 -0.0459072 162.95343232 -0.04679471 C163.85306077 -0.04701576 164.75268921 -0.04723681 165.67957913 -0.04746456 C190.98288865 -0.05361836 216.28619775 -0.05756516 241.58950806 -0.05712128 C242.5434138 -0.0571057 243.49731954 -0.05709012 244.48013152 -0.05707407 C249.31488141 -0.05699096 254.14963129 -0.05689192 258.98438117 -0.05678936 C260.42466977 -0.05675944 260.42466977 -0.05675944 261.89405511 -0.05672892 C263.83579778 -0.05668848 265.77754045 -0.05664669 267.71928312 -0.05660353 C297.93044573 -0.05599076 328.14159711 -0.06349783 358.3527565 -0.07717609 C392.2977238 -0.09253853 426.24268373 -0.10114223 460.18765473 -0.10021287 C463.80761226 -0.10013824 467.42756979 -0.10008953 471.04752731 -0.10005856 C472.38450763 -0.10004107 472.38450763 -0.10004107 473.74849764 -0.10002324 C488.08811585 -0.09999247 502.42772431 -0.10637656 516.76733962 -0.11499082 C531.18017986 -0.12346997 545.59300584 -0.12445518 560.00584719 -0.1178815 C568.565935 -0.11418768 577.1259795 -0.11601322 585.68606272 -0.12582384 C591.40825097 -0.13182734 597.13040786 -0.13052424 602.85259467 -0.12335334 C606.11005477 -0.11947499 609.36741465 -0.119798 612.62487194 -0.12681069 C637.3182448 -0.17644665 637.3182448 -0.17644665 647.84006119 2.12863445 C649.07240494 2.37742352 650.30474869 2.62621258 651.57443619 2.8825407 C664.75221183 6.41595982 677.72695479 12.88021745 687.84006119 22.12863445 C688.71920181 22.9278532 689.59834244 23.72707195 690.50412369 24.55050945 C709.69116611 42.83898515 719.20182134 66.69887748 720.03946304 93.05380535 C720.1594265 98.69824735 720.17185006 104.34248819 720.17599869 109.98800945 C720.18244223 112.07014332 720.18917168 114.15227631 720.19617081 116.23440838 C720.20806443 120.57107932 720.21185932 124.90767104 720.21066666 129.24435711 C720.21046269 134.77744343 720.23788071 140.31002068 720.27221107 145.84298611 C720.29452206 150.13260483 720.29850308 154.42210118 720.2974472 158.71177197 C720.29979235 160.75135602 720.30855396 162.79094402 720.32411194 164.83047009 C720.41797177 178.39089476 720.46424047 189.90590822 710.71896744 200.3747282 C705.51565548 205.23187387 700.28619535 207.88106234 693.84006119 210.75363445 C675.82732917 219.09441372 664.72428794 229.60429623 656.84006119 248.12863445 C650.70804383 265.99976674 651.61869994 285.13369332 659.38302994 302.3747282 C661.79470868 306.932995 664.68620741 311.05755251 667.84006119 315.12863445 C668.76818619 316.37773602 668.76818619 316.37773602 669.71506119 317.65207195 C676.50932347 325.57038498 686.27362591 329.92179133 695.59006119 334.12863445 C706.10918468 338.93499343 713.80244992 343.94970582 718.18381119 355.0856657 C719.80198408 360.12319204 719.98813608 364.79032742 719.98532486 370.06540203 C719.99036278 371.42002041 719.99036278 371.42002041 719.99550247 372.80200481 C720.00501095 375.79240575 720.00695626 378.78275058 720.00802994 381.7731657 C720.01124515 383.86143803 720.01460943 385.94971013 720.018116 388.03798199 C720.02410882 392.42359214 720.025956 396.8091826 720.02536392 401.19479656 C720.02526288 406.778093 720.03885432 412.36126061 720.05613613 417.94452667 C720.06733674 422.26433659 720.06928059 426.5841163 720.0687542 430.90393925 C720.06992454 432.95974129 720.07429238 435.01554437 720.08208656 437.07133198 C720.13145896 451.45252468 719.94994318 465.7420779 715.71506119 479.62863445 C715.50333267 480.32875652 715.29160416 481.02887859 715.07345963 481.75021648 C711.1156293 494.10521564 704.59318178 504.57848174 695.84006119 514.12863445 C694.99572525 515.06578289 694.15138931 516.00293133 693.28146744 516.9684782 C677.66125842 533.49552084 655.00762025 543.4056037 632.27686742 544.22052797 C629.41083221 544.25751161 626.54639178 544.26310718 623.68012238 544.25726891 C622.03435351 544.25989846 622.03435351 544.25989846 620.35533679 544.26258114 C616.67707552 544.26723483 612.99885388 544.26477724 609.32059097 544.26234722 C606.65746613 544.26421551 603.99434422 544.26647646 601.33122039 544.26921254 C595.54002918 544.27435876 589.74884632 544.2757851 583.95765305 544.27475643 C575.34570004 544.27323047 566.73375628 544.27739555 558.12180508 544.28263106 C541.8452218 544.29229978 525.56864168 544.29511512 509.29205588 544.29568812 C496.72230016 544.29614773 484.15254569 544.29820642 471.58279037 544.30138874 C467.96409027 544.30228629 464.34539016 544.3031761 460.72669005 544.30406362 C459.82706161 544.30428467 458.92743316 544.30450571 458.00054325 544.30473346 C432.69723372 544.31088726 407.39392463 544.31483406 382.09061432 544.31439018 C381.13670857 544.3143746 380.18280283 544.31435903 379.19999085 544.31434297 C374.36524097 544.31425987 369.53049109 544.31416083 364.69574121 544.31405827 C363.25545261 544.31402835 363.25545261 544.31402835 361.78606727 544.31399783 C359.84432459 544.31395739 357.90258192 544.31391559 355.96083925 544.31387244 C325.74967665 544.31325966 295.53852527 544.32076674 265.32736588 544.334445 C231.38239857 544.34980744 197.43743864 544.35841113 163.49246764 544.35748178 C159.87251012 544.35740715 156.25255259 544.35735844 152.63259506 544.35732746 C151.74127485 544.35731581 150.84995465 544.35730415 149.93162473 544.35729215 C135.59200653 544.35726138 121.25239807 544.36364546 106.91278275 544.37225973 C92.49994252 544.38073888 78.08711654 544.38172409 63.67427519 544.3751504 C55.11418737 544.37145658 46.55414288 544.37328212 37.99405965 544.38309274 C32.27187141 544.38909625 26.54971451 544.38779315 20.8275277 544.38062225 C17.5700676 544.37674389 14.31270772 544.3770669 11.05525044 544.3840796 C-13.63812242 544.43371555 -13.63812242 544.43371555 -24.15993881 542.12863445 C-26.00845444 541.75545086 -26.00845444 541.75545086 -27.89431381 541.3747282 C-41.07208945 537.84130909 -54.04683242 531.37705145 -64.15993881 522.12863445 C-65.47864975 520.92980633 -65.47864975 520.92980633 -66.82400131 519.70675945 C-86.01104374 501.41828375 -95.52169897 477.55839143 -96.35934067 451.20346355 C-96.47930412 445.55902156 -96.49172768 439.91478071 -96.49587631 434.26925945 C-96.50231985 432.18712559 -96.50904931 430.1049926 -96.51604843 428.02286053 C-96.52794206 423.68618958 -96.53173695 419.34959787 -96.53054428 415.0129118 C-96.53034032 409.47982547 -96.55775833 403.94724823 -96.5920887 398.4142828 C-96.61439969 394.12466408 -96.6183807 389.83516773 -96.61732483 385.54549694 C-96.61966998 383.50591288 -96.62843158 381.46632489 -96.64398956 379.42679882 C-96.7378494 365.86637414 -96.78411809 354.35136068 -87.03884506 343.8825407 C-81.83553311 339.02539503 -76.60607297 336.37620657 -70.15993881 333.50363445 C-52.1472068 325.16285518 -41.04416556 314.65297268 -33.15993881 296.12863445 C-27.02792146 278.25750216 -27.93857757 259.12357559 -35.70290756 241.8825407 C-38.11458631 237.3242739 -41.00608504 233.1997164 -44.15993881 229.12863445 C-45.08806381 227.87953289 -45.08806381 227.87953289 -46.03493881 226.60519695 C-52.8292011 218.68688392 -62.59350354 214.33547758 -71.90993881 210.12863445 C-82.4290623 205.32227547 -90.12232755 200.30756308 -94.50368881 189.1716032 C-96.12186171 184.13407687 -96.30801371 179.46694149 -96.30520248 174.19186687 C-96.3085611 173.28878796 -96.31191971 172.38570904 -96.3153801 171.45526409 C-96.32488858 168.46486315 -96.32683388 165.47451833 -96.32790756 162.4841032 C-96.33112278 160.39583088 -96.33448705 158.30755878 -96.33799362 156.21928692 C-96.34398644 151.83367676 -96.34583362 147.44808631 -96.34524155 143.06247234 C-96.3451405 137.47917591 -96.35873194 131.8960083 -96.37601376 126.31274223 C-96.38721436 121.99293232 -96.38915821 117.6731526 -96.38863182 113.35332966 C-96.38980217 111.29752761 -96.39417 109.24172453 -96.40196419 107.18593693 C-96.45133659 92.80474423 -96.26982081 78.51519101 -92.03493881 64.62863445 C-91.8232103 63.92851238 -91.61148178 63.22839031 -91.39333725 62.50705242 C-87.43550693 50.15205326 -80.91305941 39.67878717 -72.15993881 30.12863445 C-71.31560287 29.19148602 -70.47126694 28.25433758 -69.60134506 27.2887907 C-51.20237919 7.82167006 -26.1452614 -0.05325499 0 0 Z M51.84006119 105.12863445 C42.73486696 116.02340249 40.68855871 127.77311364 40.69961929 141.55115032 C40.69664817 142.70753895 40.69367705 143.86392758 40.69061589 145.05535829 C40.68345287 148.25669042 40.68075792 151.45798979 40.68001842 154.6593287 C40.67816286 158.11552385 40.67061298 161.57170748 40.66388321 165.02789593 C40.65031937 172.58182285 40.64427813 180.13574446 40.63987255 187.68968153 C40.63710666 192.40989735 40.63286866 197.13011114 40.62836838 201.85032558 C40.61617794 214.92910985 40.60587839 228.00789249 40.60249329 241.08668232 C40.60227372 241.92325444 40.60205415 242.75982657 40.60182793 243.62174936 C40.60160966 244.46028048 40.60139138 245.2988116 40.60116649 246.16275275 C40.60072303 247.8618292 40.60027646 249.56090566 40.59982681 251.25998211 C40.59960538 252.10277597 40.59938395 252.94556983 40.59915581 253.8139029 C40.59520984 267.46274324 40.57776093 281.11153012 40.55446729 294.76034983 C40.530724 308.78631376 40.51829007 322.81225091 40.51712537 336.83823526 C40.51621025 344.70806089 40.51049913 352.57781687 40.49230576 360.44762325 C40.47686448 367.15041369 40.47180794 373.85311296 40.48004386 380.55591781 C40.48393626 383.97211438 40.4830904 387.38812756 40.46898651 390.80430126 C40.45624627 394.51776272 40.46215571 398.23075807 40.47256851 401.94421673 C40.46451211 403.01019923 40.4564557 404.07618173 40.44815516 405.17446673 C40.53524802 418.51593657 44.04103073 430.51796357 53.12521744 440.50363445 C67.5317964 454.15542681 85.71366381 453.28061175 104.24850845 453.2556181 C106.11457252 453.25677152 107.98063635 453.25836054 109.84669971 453.26034534 C114.95412767 453.26450816 120.06153686 453.26246176 125.16896486 453.25935912 C130.68505383 453.25709282 136.20113961 453.26059077 141.71722794 453.26333904 C152.5152212 453.26778254 163.31320751 453.26682657 174.11120105 453.2639264 C182.88801935 453.2616668 191.6648357 453.26136227 200.44165421 453.26245022 C202.31634961 453.26268007 202.31634961 453.26268007 204.22891766 453.26291456 C206.76796174 453.26323429 209.30700582 453.2635585 211.8460499 453.26388715 C234.96889304 453.26665654 258.09173253 453.26378597 281.21457483 453.25854455 C302.30946554 453.25379918 323.40435022 453.25422382 344.49924088 453.25900555 C368.21601653 453.26436366 391.93278927 453.26646313 415.6495657 453.26339328 C418.17919985 453.26307474 420.70883401 453.26276037 423.23846817 453.26245022 C425.10534588 453.2622188 425.10534588 453.2622188 427.0099383 453.26198272 C435.7748568 453.26111978 444.53977315 453.26257565 453.30469131 453.26492977 C463.98810922 453.26773613 474.67151977 453.26697182 485.35493684 453.26164903 C490.80434718 453.25902334 496.25374527 453.2579878 501.70315552 453.26129818 C506.69450817 453.26428441 511.68583727 453.26262957 516.6771878 453.25732063 C518.47986893 453.25620638 520.28255206 453.25676556 522.0852319 453.25919642 C547.65170367 453.36447042 547.65170367 453.36447042 569.68771744 441.29269695 C580.49687261 430.42468975 582.99234973 417.4633551 582.98050308 402.70611858 C582.9834742 401.54972995 582.98644533 400.39334132 582.98950648 399.20191061 C582.9966695 396.00057849 582.99936446 392.79927912 583.00010395 389.59794021 C583.00195951 386.14174506 583.0095094 382.68556143 583.01623917 379.22937298 C583.029803 371.67544605 583.03584425 364.12152445 583.04024982 356.56758738 C583.04301572 351.84737155 583.04725372 347.12715777 583.051754 342.40694332 C583.06394444 329.32815905 583.07424399 316.24937641 583.07762909 303.17058659 C583.07795844 301.9157284 583.07795844 301.9157284 583.07829444 300.63551954 C583.07851272 299.79698843 583.078731 298.95845731 583.07895589 298.09451616 C583.07939935 296.3954397 583.07984591 294.69636325 583.08029556 292.9972868 C583.08062771 291.73309601 583.08062771 291.73309601 583.08096656 290.44336601 C583.08491254 276.79452567 583.10236144 263.14573878 583.12565508 249.49691908 C583.14939838 235.47095514 583.16183231 221.445018 583.16299701 207.41903365 C583.16391213 199.54920802 583.16962324 191.67945204 583.18781662 183.80964565 C583.2032579 177.10685521 583.20831443 170.40415595 583.20007852 163.70135109 C583.19618612 160.28515453 583.19703198 156.86914135 583.21113586 153.45296764 C583.22387611 149.73950618 583.21796666 146.02651084 583.20755386 142.31305218 C583.21561027 141.24706968 583.22366667 140.18108718 583.23196721 139.08280218 C583.14487436 125.74133233 579.63909164 113.73930533 570.55490494 103.75363445 C556.14832598 90.10184209 537.96645856 90.97665716 519.43161392 91.00165081 C517.56554986 91.00049738 515.69948602 90.99890837 513.83342266 90.99692357 C508.72599471 90.99276075 503.61858552 90.99480715 498.51115751 90.99790978 C492.99506855 91.00017609 487.47898277 90.99667814 481.96289444 90.99392986 C471.16490117 90.98948637 460.36691486 90.99044233 449.56892133 90.9933425 C440.79210303 90.99560211 432.01528668 90.99590664 423.23846817 90.99481869 C421.98867123 90.99466545 420.73887429 90.99451222 419.45120472 90.99435434 C416.91216063 90.99403462 414.37311655 90.9937104 411.83407247 90.99338175 C388.71122934 90.99061236 365.58838984 90.99348293 342.46554755 90.99872435 C321.37065683 91.00346972 300.27577216 91.00304509 279.1808815 90.99826336 C255.46410584 90.99290524 231.74733311 90.99080577 208.03055668 90.99387562 C205.50092252 90.99419417 202.97128836 90.99450854 200.44165421 90.99481869 C198.57477649 90.9950501 198.57477649 90.9950501 196.67018408 90.99528619 C187.90526558 90.99614913 179.14034923 90.99469325 170.37543106 90.99233913 C159.69201316 90.98953277 149.0086026 90.99029709 138.32518554 90.99561988 C132.8757752 90.99824557 127.4263771 90.99928111 121.97696686 90.99597073 C116.9856142 90.99298449 111.9942851 90.99463933 107.00293458 90.99994828 C105.20025344 91.00106253 103.39757031 91.00050335 101.59489048 90.99807249 C82.92818104 90.97483784 65.90353053 90.9885945 51.84006119 105.12863445 Z " fill="#FF8000" transform="translate(168.15993881225586,207.87136554718018)"/>
<path d="M0 0 C1.06495035 -0.00525911 1.06495035 -0.00525911 2.15141484 -0.01062447 C4.53057274 -0.01992883 6.90948535 -0.01501769 9.28865337 -0.01015663 C11.01158605 -0.01389337 12.73451703 -0.01849499 14.45744532 -0.02388728 C19.19239098 -0.03612965 23.92726605 -0.03585535 28.66222394 -0.03349853 C33.76868889 -0.03309067 38.87513112 -0.04412646 43.9815855 -0.05361366 C53.98616838 -0.07023127 63.99072769 -0.07572355 73.99532322 -0.07683842 C82.12678141 -0.0777885 90.25823181 -0.08189682 98.38968754 -0.08823967 C121.4397385 -0.10585392 144.48977083 -0.11507822 167.53982858 -0.11357872 C169.40403941 -0.11345885 169.40403941 -0.11345885 171.30591106 -0.11333656 C172.55023424 -0.1132548 173.79455741 -0.11317304 175.07658734 -0.1130888 C195.24572043 -0.11227578 215.41477886 -0.13141703 235.58389036 -0.1596133 C256.28934631 -0.18833117 276.99476584 -0.2021542 297.70024222 -0.20042574 C309.32643262 -0.19976148 320.95254475 -0.20526984 332.57871723 -0.22678185 C342.47695673 -0.24497915 352.37508247 -0.24935285 362.27333144 -0.235763 C367.32355728 -0.22922614 372.37356479 -0.22914214 377.42376995 -0.2464695 C382.04834223 -0.26217333 386.67252257 -0.25936405 391.29708513 -0.24190123 C392.9686582 -0.23882542 394.64026033 -0.24248559 396.31179915 -0.25362138 C406.54053448 -0.31724359 415.30475822 -0.10058787 423.19629192 7.19476891 C429.01148795 14.14463733 428.9079172 21.97820256 428.89250469 30.65665245 C428.89477025 31.59535152 428.8970358 32.53405058 428.89937001 33.50119507 C428.90569334 36.6423924 428.90488172 39.78354639 428.9040556 42.92474937 C428.9070481 45.17863585 428.91045085 47.4325218 428.91423321 49.68640709 C428.92306756 55.80623122 428.92541107 61.92604137 428.92604899 68.04587126 C428.92699876 73.15525463 428.93067779 78.26463476 428.93422109 83.37401688 C428.94189834 94.73996616 428.9448899 106.10590678 428.94421574 117.47185777 C428.9441558 118.49412994 428.9441558 118.49412994 428.94409466 119.53705406 C428.94405378 120.21940397 428.9440129 120.90175387 428.94397078 121.60478105 C428.94356432 132.66323647 428.95313475 143.72165785 428.96723302 154.78010343 C428.98160572 166.14374023 428.98831969 177.50735527 428.98763925 188.87100327 C428.98738427 195.24727028 428.99023546 201.62349874 429.0008173 207.99975777 C429.01049765 213.99647468 429.01057783 219.99311617 429.00330067 225.98983574 C429.00225479 228.1892349 429.0046179 230.38863875 429.01066113 232.58802986 C429.01838339 235.59341455 429.01373457 238.59853895 429.00603008 241.60391808 C429.01117365 242.47144073 429.01631721 243.33896339 429.02161664 244.23277462 C428.9767774 252.16368671 428.01891323 259.92146017 422.21972942 265.82367516 C416.46485408 271.08418896 411.35012947 272.5057982 403.51758385 272.51453781 C402.80761695 272.51804389 402.09765005 272.52154996 401.36616901 272.52516228 C398.9870111 272.53446665 396.60809849 272.5295555 394.22893047 272.52469444 C392.5059978 272.52843119 390.78306681 272.5330328 389.06013852 272.53842509 C384.32519286 272.55066746 379.59031779 272.55039316 374.85535991 272.54803634 C369.74889496 272.54762849 364.64245273 272.55866427 359.53599834 272.56815147 C349.53141547 272.58476908 339.52685615 272.59026136 329.52226063 272.59137623 C321.39080244 272.59232631 313.25935204 272.59643463 305.12789631 272.60277748 C282.07784535 272.62039173 259.02781301 272.62961603 235.97775527 272.62811653 C234.11354444 272.62799666 234.11354444 272.62799666 232.21167278 272.62787437 C230.96734961 272.62779261 229.72302644 272.62771085 228.44099651 272.62762661 C208.27186342 272.62681359 188.10280498 272.64595484 167.93369349 272.67415111 C147.22823754 272.70286898 126.52281801 272.71669202 105.81734163 272.71496356 C94.19115122 272.71429929 82.56503909 272.71980766 70.93886662 272.74131966 C61.04062712 272.75951697 51.14250138 272.76389066 41.24425241 272.75030081 C36.19402657 272.74376396 31.14401906 272.74367995 26.0938139 272.76100731 C21.46924162 272.77671114 16.84506128 272.77390187 12.22049872 272.75643905 C10.54892564 272.75336324 8.87732351 272.7570234 7.2057847 272.7681592 C-3.02295063 272.8317814 -11.78717437 272.61512568 -19.67870808 265.31976891 C-25.4939041 258.36990048 -25.39033336 250.53633525 -25.37492085 241.85788536 C-25.3771864 240.9191863 -25.37945196 239.98048723 -25.38178617 239.01334274 C-25.38810949 235.87214541 -25.38729787 232.73099142 -25.38647175 229.58978844 C-25.38946426 227.33590197 -25.392867 225.08201601 -25.39664936 222.82813072 C-25.40548371 216.70830659 -25.40782723 210.58849644 -25.40846515 204.46866655 C-25.40941491 199.35928318 -25.41309394 194.24990305 -25.41663724 189.14052093 C-25.4243145 177.77457166 -25.42730605 166.40863103 -25.42663189 155.04268004 C-25.42659193 154.36116526 -25.42655198 153.67965049 -25.42651081 152.97748375 C-25.42646993 152.29513384 -25.42642905 151.61278394 -25.42638693 150.90975676 C-25.42598048 139.85130134 -25.4355509 128.79287996 -25.44964918 117.73443438 C-25.46402187 106.37079758 -25.47073585 95.00718254 -25.4700554 83.64353454 C-25.46980042 77.26726753 -25.47265161 70.89103908 -25.48323345 64.51478004 C-25.4929138 58.51806313 -25.49299399 52.52142164 -25.48571682 46.52470207 C-25.48467094 44.32530291 -25.48703405 42.12589906 -25.49307728 39.92650795 C-25.50079954 36.92112326 -25.49615072 33.91599886 -25.48844624 30.91061974 C-25.4935898 30.04309708 -25.49873336 29.17557442 -25.50403279 28.2817632 C-25.45919356 20.3508511 -24.50132938 12.59307764 -18.70214558 6.69086266 C-12.94727023 1.43034885 -7.83254562 0.00873962 0 0 Z " fill="#FF7F00" transform="translate(278.24120807647705,343.74273109436035)"/>
</svg>
