<svg id="svg" version="1.1" xmlns="http://www.w3.org/2000/svg" xmlns:xlink="http://www.w3.org/1999/xlink" width="400" height="400" viewBox="0, 0, 400,400"><g id="svgg"><path id="path0" d="M105.393 200.000 C 105.393 225.850,105.441 236.425,105.500 223.500 C 105.558 210.575,105.558 189.425,105.500 176.500 C 105.441 163.575,105.393 174.150,105.393 200.000 M294.593 200.000 C 294.593 225.850,294.641 236.425,294.700 223.500 C 294.758 210.575,294.758 189.425,294.700 176.500 C 294.641 163.575,294.593 174.150,294.593 200.000 " stroke="none" fill="#242c34" fill-rule="evenodd"></path><path id="path1" d="M66.400 86.745 C 66.400 86.934,65.931 86.999,65.357 86.890 C 64.717 86.767,64.179 86.905,63.964 87.245 C 63.698 87.665,63.611 87.675,63.606 87.286 C 63.601 86.893,63.408 86.874,62.785 87.208 C 62.337 87.448,61.617 87.532,61.185 87.395 C 60.708 87.244,60.400 87.331,60.400 87.618 C 60.400 87.915,59.957 88.026,59.210 87.916 C 58.555 87.820,57.968 87.897,57.904 88.088 C 57.840 88.279,57.341 88.493,56.794 88.564 C 56.247 88.636,55.499 88.822,55.131 88.978 C 54.763 89.134,54.197 89.301,53.872 89.348 C 53.547 89.396,52.983 89.682,52.619 89.984 C 52.255 90.286,51.200 90.908,50.274 91.367 C 49.348 91.825,48.023 92.627,47.331 93.149 C 46.638 93.670,45.952 94.064,45.806 94.022 C 45.659 93.981,45.193 94.347,44.770 94.835 C 44.346 95.323,44.000 95.616,44.000 95.487 C 44.000 95.357,43.499 95.735,42.888 96.326 C 42.276 96.916,41.821 97.470,41.877 97.556 C 42.013 97.765,39.483 99.985,39.100 99.994 C 38.935 99.997,38.800 100.260,38.800 100.577 C 38.800 100.895,38.427 101.416,37.971 101.735 C 37.515 102.055,37.097 102.618,37.043 102.986 C 36.989 103.354,36.417 104.219,35.772 104.907 C 35.128 105.595,34.870 106.020,35.200 105.850 C 35.530 105.680,35.477 105.805,35.081 106.128 C 34.686 106.451,34.270 107.230,34.158 107.858 C 34.045 108.486,33.784 109.060,33.576 109.133 C 33.369 109.207,33.200 109.576,33.200 109.953 C 33.200 110.331,33.037 110.811,32.837 111.020 C 32.638 111.229,32.392 112.041,32.291 112.825 C 32.191 113.609,31.901 114.638,31.648 115.110 C 30.368 117.503,29.949 125.648,30.084 145.499 L 30.212 164.200 31.160 166.200 C 31.681 167.300,32.803 168.889,33.654 169.731 C 34.504 170.573,35.200 171.399,35.200 171.567 C 35.200 171.854,36.520 172.583,37.400 172.782 C 37.620 172.832,38.404 173.125,39.142 173.434 C 39.881 173.742,40.646 173.895,40.842 173.774 C 41.039 173.652,41.200 173.726,41.200 173.937 C 41.200 174.149,41.695 174.517,42.300 174.755 C 43.751 175.327,44.925 176.083,45.320 176.700 C 45.496 176.975,45.901 177.200,46.220 177.200 C 46.539 177.200,46.800 177.380,46.800 177.600 C 46.800 177.820,47.032 178.000,47.315 178.000 C 48.356 178.000,53.600 183.580,53.600 184.687 C 53.600 184.969,53.791 185.200,54.024 185.200 C 54.257 185.200,54.348 185.361,54.226 185.558 C 54.104 185.755,54.275 186.020,54.606 186.147 C 54.937 186.274,55.174 186.518,55.134 186.689 C 55.093 186.860,55.255 187.450,55.494 188.000 C 56.268 189.787,56.885 191.563,56.774 191.683 C 56.714 191.747,56.895 192.230,57.176 192.756 C 57.458 193.281,57.716 194.541,57.751 195.556 C 57.786 196.570,57.915 197.580,58.038 197.800 C 58.249 198.175,58.219 202.200,58.006 202.200 C 57.952 202.200,57.858 203.120,57.798 204.244 C 57.737 205.369,57.458 206.719,57.176 207.244 C 56.895 207.770,56.714 208.253,56.774 208.317 C 56.885 208.437,56.268 210.213,55.494 212.000 C 55.255 212.550,55.093 213.140,55.134 213.311 C 55.174 213.482,54.937 213.726,54.606 213.853 C 54.275 213.980,54.104 214.245,54.226 214.442 C 54.348 214.639,54.257 214.800,54.024 214.800 C 53.791 214.800,53.600 215.031,53.600 215.313 C 53.600 216.420,48.356 222.000,47.315 222.000 C 47.032 222.000,46.800 222.180,46.800 222.400 C 46.800 222.620,46.539 222.800,46.220 222.800 C 45.901 222.800,45.496 223.025,45.320 223.300 C 44.925 223.917,43.751 224.673,42.300 225.245 C 41.695 225.483,41.200 225.851,41.200 226.063 C 41.200 226.274,41.039 226.348,40.842 226.226 C 40.646 226.105,39.791 226.295,38.942 226.650 C 38.094 227.004,37.310 227.297,37.200 227.301 C 36.688 227.319,35.200 228.162,35.200 228.433 C 35.200 228.601,34.504 229.427,33.654 230.269 C 32.803 231.111,31.681 232.700,31.160 233.800 L 30.212 235.800 30.084 254.501 C 29.949 274.352,30.368 282.497,31.648 284.890 C 31.901 285.362,32.191 286.391,32.291 287.175 C 32.392 287.959,32.638 288.771,32.837 288.980 C 33.037 289.189,33.200 289.669,33.200 290.047 C 33.200 290.424,33.369 290.793,33.576 290.867 C 33.784 290.940,34.045 291.514,34.158 292.142 C 34.270 292.770,34.686 293.549,35.081 293.872 C 35.477 294.195,35.530 294.320,35.200 294.150 C 34.870 293.980,35.128 294.405,35.772 295.093 C 36.417 295.781,36.989 296.646,37.043 297.014 C 37.097 297.382,37.515 297.945,37.971 298.265 C 38.427 298.584,38.800 299.105,38.800 299.423 C 38.800 299.740,38.935 300.003,39.100 300.006 C 39.483 300.015,42.013 302.235,41.877 302.444 C 41.821 302.530,42.276 303.084,42.888 303.674 C 43.499 304.265,44.000 304.643,44.000 304.513 C 44.000 304.384,44.346 304.677,44.770 305.165 C 45.193 305.653,45.659 306.019,45.806 305.978 C 45.952 305.936,46.638 306.330,47.331 306.851 C 48.023 307.373,49.348 308.175,50.274 308.633 C 51.200 309.092,52.255 309.714,52.619 310.016 C 52.983 310.318,53.547 310.604,53.872 310.652 C 54.197 310.699,54.763 310.866,55.131 311.022 C 55.499 311.178,56.247 311.364,56.794 311.436 C 57.341 311.507,57.840 311.721,57.904 311.912 C 57.968 312.103,58.555 312.180,59.210 312.084 C 59.957 311.974,60.400 312.085,60.400 312.382 C 60.400 312.669,60.708 312.756,61.185 312.605 C 61.617 312.468,62.337 312.552,62.785 312.792 C 63.408 313.126,63.601 313.107,63.606 312.714 C 63.611 312.325,63.698 312.335,63.964 312.755 C 64.179 313.095,64.717 313.233,65.357 313.110 C 65.931 313.001,66.400 313.066,66.400 313.255 C 66.400 313.447,125.540 313.600,200.000 313.600 C 274.460 313.600,333.600 313.447,333.600 313.255 C 333.600 313.066,334.069 313.001,334.643 313.110 C 335.283 313.233,335.821 313.095,336.036 312.755 C 336.302 312.335,336.389 312.325,336.394 312.714 C 336.399 313.106,336.592 313.125,337.208 312.796 C 337.653 312.558,338.201 312.477,338.426 312.616 C 338.651 312.755,339.096 312.652,339.415 312.387 C 339.734 312.123,340.441 311.991,340.986 312.095 C 341.530 312.199,341.881 312.130,341.764 311.942 C 341.648 311.754,341.968 311.573,342.476 311.539 C 343.697 311.459,344.071 311.379,344.869 311.031 C 345.237 310.870,345.813 310.698,346.150 310.649 C 346.486 310.599,347.085 310.296,347.481 309.976 C 347.876 309.655,348.920 309.040,349.800 308.607 C 350.680 308.175,352.016 307.330,352.768 306.729 C 353.521 306.129,354.286 305.730,354.468 305.842 C 354.651 305.955,354.800 305.827,354.800 305.557 C 354.800 305.287,354.902 305.169,355.028 305.294 C 355.282 305.549,358.683 302.273,359.573 300.916 C 359.888 300.436,360.293 300.134,360.473 300.245 C 360.653 300.356,360.800 300.180,360.800 299.853 C 360.800 299.526,361.265 298.892,361.833 298.446 C 362.401 297.999,362.908 297.343,362.961 296.989 C 363.013 296.634,363.583 295.781,364.228 295.093 C 364.872 294.405,365.130 293.980,364.800 294.150 C 364.470 294.320,364.523 294.195,364.919 293.872 C 365.314 293.549,365.730 292.770,365.842 292.142 C 365.955 291.514,366.216 290.940,366.424 290.867 C 366.631 290.793,366.800 290.424,366.800 290.047 C 366.800 289.669,366.967 289.189,367.171 288.980 C 367.375 288.771,367.607 288.060,367.687 287.400 C 367.767 286.740,368.060 285.788,368.339 285.284 C 368.617 284.781,368.803 284.061,368.752 283.684 C 368.701 283.308,368.897 282.280,369.189 281.400 C 369.969 279.041,370.290 240.057,369.556 236.747 C 368.911 233.843,367.557 230.967,366.897 231.100 C 366.623 231.155,366.438 231.065,366.485 230.900 C 366.632 230.378,365.430 228.800,364.885 228.800 C 364.597 228.800,363.920 228.324,363.381 227.742 C 362.841 227.159,362.400 226.802,362.400 226.947 C 362.400 227.092,361.751 226.940,360.958 226.608 C 360.164 226.277,359.354 226.105,359.158 226.226 C 358.961 226.348,358.800 226.274,358.800 226.063 C 358.800 225.851,358.305 225.483,357.700 225.245 C 356.249 224.673,355.075 223.917,354.680 223.300 C 354.504 223.025,354.099 222.800,353.780 222.800 C 353.461 222.800,353.200 222.620,353.200 222.400 C 353.200 222.180,352.926 222.000,352.590 222.000 C 351.722 222.000,347.434 217.503,346.590 215.708 C 346.201 214.879,345.683 214.072,345.441 213.915 C 345.198 213.758,345.000 213.436,345.000 213.200 C 345.000 212.964,344.730 212.600,344.400 212.392 C 344.070 212.183,343.922 212.009,344.072 212.006 C 344.222 212.003,344.166 211.415,343.948 210.700 C 343.040 207.726,342.422 205.196,342.292 203.924 C 342.215 203.180,342.059 202.397,341.945 202.185 C 341.757 201.836,341.786 197.800,341.976 197.800 C 342.021 197.800,342.141 197.108,342.244 196.261 C 342.419 194.813,343.043 192.264,343.948 189.300 C 344.166 188.585,344.222 187.997,344.072 187.994 C 343.922 187.991,344.070 187.817,344.400 187.608 C 344.730 187.400,345.000 187.036,345.000 186.800 C 345.000 186.564,345.198 186.242,345.441 186.085 C 345.683 185.928,346.201 185.121,346.590 184.292 C 347.434 182.497,351.722 178.000,352.590 178.000 C 352.926 178.000,353.200 177.820,353.200 177.600 C 353.200 177.380,353.461 177.200,353.780 177.200 C 354.099 177.200,354.504 176.975,354.680 176.700 C 355.075 176.083,356.249 175.327,357.700 174.755 C 358.305 174.517,358.800 174.149,358.800 173.937 C 358.800 173.726,358.961 173.652,359.158 173.774 C 359.354 173.895,360.164 173.723,360.958 173.392 C 361.751 173.060,362.400 172.908,362.400 173.053 C 362.400 173.198,362.841 172.841,363.381 172.258 C 363.920 171.676,364.597 171.200,364.885 171.200 C 365.430 171.200,366.632 169.622,366.485 169.100 C 366.438 168.935,366.623 168.845,366.897 168.900 C 367.557 169.033,368.911 166.157,369.556 163.253 C 370.290 159.943,369.969 120.959,369.189 118.600 C 368.897 117.720,368.701 116.692,368.752 116.316 C 368.803 115.939,368.617 115.219,368.339 114.716 C 368.060 114.212,367.767 113.260,367.687 112.600 C 367.607 111.940,367.375 111.229,367.171 111.020 C 366.967 110.811,366.800 110.331,366.800 109.953 C 366.800 109.576,366.631 109.207,366.424 109.133 C 366.216 109.060,365.955 108.486,365.842 107.858 C 365.730 107.230,365.314 106.451,364.919 106.128 C 364.523 105.805,364.470 105.680,364.800 105.850 C 365.130 106.020,364.872 105.595,364.228 104.907 C 363.583 104.219,363.013 103.366,362.961 103.011 C 362.908 102.657,362.401 102.001,361.833 101.554 C 361.265 101.108,360.800 100.474,360.800 100.147 C 360.800 99.820,360.653 99.644,360.473 99.755 C 360.293 99.866,359.888 99.564,359.573 99.084 C 358.683 97.727,355.282 94.451,355.028 94.706 C 354.902 94.831,354.800 94.713,354.800 94.443 C 354.800 94.173,354.651 94.045,354.468 94.158 C 354.286 94.270,353.521 93.871,352.768 93.271 C 352.016 92.670,350.680 91.825,349.800 91.393 C 348.920 90.960,347.876 90.345,347.481 90.024 C 347.085 89.704,346.486 89.401,346.150 89.351 C 345.813 89.302,345.237 89.130,344.869 88.969 C 344.071 88.621,343.697 88.541,342.476 88.461 C 341.968 88.427,341.648 88.246,341.764 88.058 C 341.881 87.870,341.530 87.801,340.986 87.905 C 340.441 88.009,339.734 87.877,339.415 87.613 C 339.096 87.348,338.651 87.245,338.426 87.384 C 338.201 87.523,337.653 87.442,337.208 87.204 C 336.592 86.875,336.399 86.894,336.394 87.286 C 336.389 87.675,336.302 87.665,336.036 87.245 C 335.821 86.905,335.283 86.767,334.643 86.890 C 334.069 86.999,333.600 86.934,333.600 86.745 C 333.600 86.553,274.460 86.400,200.000 86.400 C 125.540 86.400,66.400 86.553,66.400 86.745 M299.451 125.117 C 299.355 125.273,300.340 125.736,301.639 126.147 C 302.937 126.558,304.000 127.053,304.000 127.247 C 304.000 127.441,304.270 127.600,304.600 127.600 C 304.930 127.600,305.200 127.752,305.200 127.937 C 305.200 128.122,305.819 128.607,306.576 129.015 C 307.332 129.422,307.861 129.901,307.752 130.078 C 307.642 130.255,307.833 130.400,308.176 130.400 C 308.519 130.400,308.800 130.670,308.800 131.000 C 308.800 131.330,308.980 131.600,309.200 131.600 C 309.420 131.600,309.600 131.870,309.600 132.200 C 309.600 132.530,309.777 132.800,309.992 132.800 C 310.208 132.800,310.507 133.295,310.656 133.900 C 310.805 134.505,311.166 135.371,311.459 135.823 C 312.735 137.797,312.808 141.256,312.808 200.000 C 312.808 258.744,312.735 262.203,311.459 264.177 C 311.166 264.629,310.805 265.495,310.656 266.100 C 310.507 266.705,310.208 267.200,309.992 267.200 C 309.777 267.200,309.600 267.470,309.600 267.800 C 309.600 268.130,309.420 268.400,309.200 268.400 C 308.980 268.400,308.800 268.670,308.800 269.000 C 308.800 269.330,308.519 269.600,308.176 269.600 C 307.833 269.600,307.642 269.745,307.752 269.922 C 307.861 270.099,307.332 270.578,306.576 270.985 C 305.819 271.393,305.200 271.878,305.200 272.063 C 305.200 272.248,304.930 272.400,304.600 272.400 C 304.270 272.400,304.000 272.559,304.000 272.753 C 304.000 272.947,302.937 273.442,301.639 273.853 C 300.340 274.264,299.355 274.727,299.451 274.883 C 299.737 275.346,106.641 275.271,103.200 274.807 C 99.214 274.269,99.212 274.268,97.600 273.605 C 96.058 272.971,95.932 272.889,94.200 271.372 C 93.540 270.795,92.550 269.966,92.000 269.531 C 91.450 269.096,91.270 268.865,91.600 269.017 C 91.930 269.169,91.525 268.651,90.700 267.867 C 89.875 267.083,89.200 266.182,89.200 265.866 C 89.200 265.154,88.186 263.148,87.946 263.387 C 87.850 263.483,87.753 263.255,87.731 262.881 C 87.708 262.506,87.588 261.570,87.463 260.800 C 87.167 258.971,87.167 141.029,87.463 139.200 C 87.588 138.430,87.708 137.494,87.731 137.119 C 87.753 136.745,87.850 136.517,87.946 136.613 C 88.186 136.852,89.200 134.846,89.200 134.134 C 89.200 133.818,89.875 132.917,90.700 132.133 C 91.525 131.349,91.930 130.831,91.600 130.983 C 91.270 131.135,91.450 130.904,92.000 130.469 C 92.550 130.034,93.540 129.205,94.200 128.628 C 96.073 126.988,97.840 125.970,99.200 125.745 C 99.530 125.691,100.970 125.477,102.400 125.270 C 105.429 124.831,299.721 124.681,299.451 125.117 M114.372 143.353 C 114.277 143.443,113.570 143.606,112.800 143.716 C 110.418 144.055,108.479 145.145,109.119 145.786 C 109.274 145.940,109.160 146.007,108.866 145.933 C 108.573 145.860,107.763 146.492,107.066 147.337 L 105.800 148.874 105.800 200.000 L 105.800 251.126 107.066 252.663 C 107.763 253.508,108.573 254.140,108.866 254.067 C 109.160 253.993,109.274 254.060,109.119 254.214 C 108.497 254.836,110.312 255.885,112.800 256.343 C 113.570 256.484,153.080 256.600,200.600 256.600 C 291.201 256.600,289.280 256.636,290.916 254.905 C 294.698 250.902,294.400 255.590,294.400 200.000 C 294.400 148.751,294.400 148.764,292.632 146.995 C 292.064 146.428,291.600 145.831,291.600 145.668 C 291.600 145.236,289.186 143.881,288.909 144.158 C 288.780 144.287,288.404 144.170,288.075 143.897 C 287.507 143.425,114.865 142.884,114.372 143.353 " stroke="none" fill="#1c2a32" fill-rule="evenodd"></path><path id="path2" d="M29.849 123.815 C 29.712 124.173,29.642 133.046,29.692 143.533 L 29.785 162.600 29.992 143.000 C 30.215 122.007,30.221 122.847,29.849 123.815 M369.902 137.537 C 369.958 145.382,370.054 154.230,370.114 157.200 C 370.175 160.170,370.261 153.960,370.306 143.400 C 370.351 132.840,370.256 123.992,370.094 123.737 C 369.932 123.483,369.846 129.693,369.902 137.537 M308.432 131.430 C 308.414 131.667,308.850 132.283,309.400 132.800 C 309.950 133.317,310.400 133.547,310.400 133.313 C 310.400 133.078,310.119 132.778,309.775 132.646 C 309.425 132.511,309.276 132.201,309.436 131.941 C 309.607 131.665,309.550 131.584,309.296 131.741 C 309.061 131.886,308.777 131.779,308.666 131.502 C 308.554 131.226,308.449 131.194,308.432 131.430 M107.201 146.598 C 106.686 147.148,106.339 147.664,106.432 147.746 C 106.524 147.828,107.019 147.378,107.530 146.747 C 108.676 145.335,108.474 145.244,107.201 146.598 M29.694 256.600 C 29.649 267.160,29.744 276.008,29.906 276.263 C 30.172 276.682,30.160 256.243,29.886 242.800 C 29.825 239.830,29.739 246.040,29.694 256.600 M370.096 256.467 C 370.043 266.954,369.896 275.864,369.770 276.267 C 369.562 276.927,369.583 276.933,369.974 276.329 C 370.274 275.864,370.375 269.777,370.300 256.529 L 370.192 237.400 370.096 256.467 M106.400 252.264 C 106.400 252.482,106.895 253.097,107.500 253.630 L 108.600 254.600 107.600 253.400 C 107.050 252.740,106.555 252.125,106.500 252.033 C 106.445 251.942,106.400 252.045,106.400 252.264 M89.613 266.700 C 89.619 266.865,90.114 267.346,90.713 267.768 L 91.800 268.536 90.830 267.468 C 89.811 266.346,89.592 266.207,89.613 266.700 M309.200 267.400 C 308.685 267.948,308.384 268.518,308.532 268.665 C 308.679 268.813,308.800 268.713,308.800 268.443 C 308.800 268.173,309.008 268.081,309.262 268.238 C 309.539 268.409,309.615 268.349,309.453 268.086 C 309.305 267.846,309.500 267.472,309.888 267.255 C 310.276 267.038,310.491 266.757,310.365 266.632 C 310.239 266.506,309.715 266.852,309.200 267.400 " stroke="none" fill="#242c2c" fill-rule="evenodd"></path><path id="path3" d="" stroke="none" fill="#242434" fill-rule="evenodd"></path><path id="path4" d="" stroke="none" fill="#282c34" fill-rule="evenodd"></path></g></svg>